<?xml version="1.0" encoding="UTF-8" standalone="no"?>
<!DOCTYPE svg PUBLIC "-//W3C//DTD SVG 1.1//EN" "http://www.w3.org/Graphics/SVG/1.1/DTD/svg11.dtd">
<svg version="1.1" xmlns="http://www.w3.org/2000/svg" xmlns:xlink="http://www.w3.org/1999/xlink" preserveAspectRatio="xMidYMid meet" viewBox="0 0 640 640" width="640" height="640"><defs><path d="M361.55 202C355.29 203.11 355.1 203.74 354.84 224.2C354.53 248.5 356.33 246.71 332.04 246.9C330.98 246.9 325.71 246.94 316.22 247.02C314.8 247.73 314.01 248.13 313.85 248.21C309.67 250.31 309.05 253.28 309.36 269.6C309.56 280.05 309.8 281.42 311.77 283.53C313.9 285.81 313.68 285.78 331.86 286C332.98 286.01 338.59 286.08 348.67 286.2C349.86 286.81 350.51 287.15 350.65 287.22C352.18 288 352.85 288.67 353.63 290.2C353.7 290.34 354.04 290.99 354.65 292.18C354.77 302.14 354.84 307.68 354.85 308.79C355.14 332.54 353.98 331.2 374.25 331.2C387.4 331.2 388.84 331.04 390.85 329.34C393.48 327.13 393.43 327.47 393.67 309.2C394 284.56 392.23 286.33 416.85 286C433.89 285.76 434.17 285.74 436.31 284.15C438.84 282.28 439.05 280.94 439.05 266.6C439.05 246.11 440.39 247.24 415.62 246.86C414.51 246.84 408.97 246.75 398.99 246.6C397.99 245.94 397.44 245.58 397.33 245.5C394.01 243.31 393.66 241.03 393.65 222C393.64 201.24 394.29 201.95 375.25 201.77C368.76 201.71 362.6 201.81 361.55 202" id="cTXUf9tFK"></path><path d="M361.55 202C355.29 203.11 355.1 203.74 354.84 224.2C354.53 248.5 356.33 246.71 332.04 246.9C330.98 246.9 325.71 246.94 316.22 247.02C314.8 247.73 314.01 248.13 313.85 248.21C309.67 250.31 309.05 253.28 309.36 269.6C309.56 280.05 309.8 281.42 311.77 283.53C313.9 285.81 313.68 285.78 331.86 286C332.98 286.01 338.59 286.08 348.67 286.2C349.86 286.81 350.51 287.15 350.65 287.22C352.18 288 352.85 288.67 353.63 290.2C353.7 290.34 354.04 290.99 354.65 292.18C354.77 302.14 354.84 307.68 354.85 308.79C355.14 332.54 353.98 331.2 374.25 331.2C387.4 331.2 388.84 331.04 390.85 329.34C393.48 327.13 393.43 327.47 393.67 309.2C394 284.56 392.23 286.33 416.85 286C433.89 285.76 434.17 285.74 436.31 284.15C438.84 282.28 439.05 280.94 439.05 266.6C439.05 246.11 440.39 247.24 415.62 246.86C414.51 246.84 408.97 246.75 398.99 246.6C397.99 245.94 397.44 245.58 397.33 245.5C394.01 243.31 393.66 241.03 393.65 222C393.64 201.24 394.29 201.95 375.25 201.77C368.76 201.71 362.6 201.81 361.55 202" id="d66YdHAHcr"></path><path d="M316.36 119.65C315.59 119.74 312.8 120.08 310.16 120.41C307.52 120.73 302.63 121.19 299.29 121.42C286.77 122.28 283.56 124.32 281.3 132.81C280.37 136.3 280.27 341.26 281.19 344.13C283.42 351.06 285.12 352.82 291.26 354.52C294.54 355.43 500.6 355.58 506.9 354.68C514.6 353.58 519.28 350.18 520.2 345.04C520.35 344.25 520.62 343.41 520.82 343.15C522.78 340.68 522.13 298.34 520 289.61C519.36 286.97 518.71 283.37 518.56 281.61C518.41 279.85 517.95 277.06 517.53 275.41C517.12 273.76 516.51 271.33 516.18 270.01C515.85 268.69 515.22 266.17 514.79 264.41C513.96 261.02 511.69 254 510.15 250.01C504.3 234.91 500.04 225.91 493.87 215.62C485.76 202.11 475.52 188.96 464.58 177.98C459.26 172.65 456.83 170.41 450.54 165.07C428.28 146.15 394.18 129.49 368.16 124.8C366.18 124.44 362.85 123.72 360.76 123.2C356.5 122.14 352.06 121.58 344.96 121.2C342.32 121.07 338.36 120.69 336.16 120.37C332.24 119.8 319.13 119.32 316.36 119.65M195.43 167.4C185.72 171.2 159.61 202.89 148.64 224.2C147.11 227.18 145.64 229.97 145.36 230.41C144.16 232.37 138.37 246.31 136.56 251.61C136.03 253.15 135.22 255.49 134.76 256.81C134.3 258.13 133.73 260.11 133.5 261.21C133.27 262.31 132.57 264.92 131.94 267.01C131.31 269.1 130.59 272.25 130.34 274.01C130.08 275.77 129.62 277.84 129.32 278.61C128.23 281.38 127.51 286.13 127.13 293.01C126.92 296.86 126.43 301.45 126.05 303.21C125.03 307.92 125.04 328.97 126.06 333.56C126.44 335.28 126.76 337.6 126.76 338.7C126.76 346.48 130.11 352.02 135.92 353.83C141.78 355.66 197.49 356.18 203.36 354.47C208.06 353.1 210.43 351 211.55 347.21C211.81 346.33 212.22 345.07 212.46 344.41C213.88 340.5 213.57 183.05 212.13 175.87C210.51 167.83 203.47 164.26 195.43 167.4M398.46 190.57C403.13 192.06 403.55 193.7 403.56 210.21C403.56 229.25 403.92 231.52 407.24 233.71C407.35 233.79 407.9 234.15 408.9 234.81C418.87 234.97 424.42 235.05 425.53 235.07C450.3 235.45 448.96 234.32 448.96 254.81C448.96 269.16 448.75 270.49 446.22 272.36C444.07 273.95 443.8 273.97 426.76 274.21C402.13 274.54 403.91 272.77 403.58 297.41C403.27 320.73 404.44 319.41 384.16 319.41C363.89 319.41 365.05 320.75 364.76 297C364.75 295.89 364.68 290.36 364.56 280.39C363.95 279.21 363.61 278.55 363.54 278.42C362.75 276.89 362.08 276.22 360.55 275.43C360.42 275.36 359.76 275.02 358.58 274.41C348.49 274.29 342.89 274.23 341.77 274.21C323.58 274 323.8 274.02 321.68 271.75C319.7 269.63 319.47 268.26 319.27 257.81C318.95 241.49 319.58 238.53 323.76 236.42C323.92 236.34 324.71 235.95 326.13 235.23C335.62 235.16 340.89 235.12 341.94 235.11C359.12 234.98 360.4 234.83 362.29 232.87C364.51 230.57 364.51 230.53 364.74 212.41C365.05 188.53 363.91 189.78 385.16 189.98C392.97 190.05 397.47 190.25 398.46 190.57M150.96 369.41C139.11 370.47 135.13 377.82 139.36 390.79C141.5 397.34 149.61 415.02 151.4 417.04C151.7 417.39 151.96 417.8 151.96 417.95C151.96 420.02 167 441.07 174.46 449.45C188.25 464.93 194.37 469.53 201.16 469.54C207.87 469.54 210.39 467.53 212.61 460.41C213.64 457.12 213.63 384.45 212.61 380.53C210.89 373.97 208.54 371.43 202.76 369.89C200.24 369.21 157.56 368.82 150.96 369.41M295.36 369.4C288.34 370.04 282.36 373.62 282.36 377.18C282.36 377.5 282.2 377.86 282 377.99C280.45 378.95 279.83 497.24 281.34 503.61C283.74 513.66 291.68 515.98 323.76 515.99C343.65 515.99 346.99 515.8 353.66 514.21C355.47 513.79 358.94 513.14 361.36 512.79C399.38 507.2 442.71 482.91 471.18 451.21C474.26 447.79 479.7 441.3 481.08 439.41C487.04 431.27 488.94 428.51 491.97 423.61C512.82 389.93 515.14 373.21 499.41 369.97C496.17 369.3 302.37 368.76 295.36 369.4" id="bIhKoqfHe"></path><path d="M316.36 119.65C315.59 119.74 312.8 120.08 310.16 120.41C307.52 120.73 302.63 121.19 299.29 121.42C286.77 122.28 283.56 124.32 281.3 132.81C280.37 136.3 280.27 341.26 281.19 344.13C283.42 351.06 285.12 352.82 291.26 354.52C294.54 355.43 500.6 355.58 506.9 354.68C514.6 353.58 519.28 350.18 520.2 345.04C520.35 344.25 520.62 343.41 520.82 343.15C522.78 340.68 522.13 298.34 520 289.61C519.36 286.97 518.71 283.37 518.56 281.61C518.41 279.85 517.95 277.06 517.53 275.41C517.12 273.76 516.51 271.33 516.18 270.01C515.85 268.69 515.22 266.17 514.79 264.41C513.96 261.02 511.69 254 510.15 250.01C504.3 234.91 500.04 225.91 493.87 215.62C485.76 202.11 475.52 188.96 464.58 177.98C459.26 172.65 456.83 170.41 450.54 165.07C428.28 146.15 394.18 129.49 368.16 124.8C366.18 124.44 362.85 123.72 360.76 123.2C356.5 122.14 352.06 121.58 344.96 121.2C342.32 121.07 338.36 120.69 336.16 120.37C332.24 119.8 319.13 119.32 316.36 119.65M195.43 167.4C185.72 171.2 159.61 202.89 148.64 224.2C147.11 227.18 145.64 229.97 145.36 230.41C144.16 232.37 138.37 246.31 136.56 251.61C136.03 253.15 135.22 255.49 134.76 256.81C134.3 258.13 133.73 260.11 133.5 261.21C133.27 262.31 132.57 264.92 131.94 267.01C131.31 269.1 130.59 272.25 130.34 274.01C130.08 275.77 129.62 277.84 129.32 278.61C128.23 281.38 127.51 286.13 127.13 293.01C126.92 296.86 126.43 301.45 126.05 303.21C125.03 307.92 125.04 328.97 126.06 333.56C126.44 335.28 126.76 337.6 126.76 338.7C126.76 346.48 130.11 352.02 135.92 353.83C141.78 355.66 197.49 356.18 203.36 354.47C208.06 353.1 210.43 351 211.55 347.21C211.81 346.33 212.22 345.07 212.46 344.41C213.88 340.5 213.57 183.05 212.13 175.87C210.51 167.83 203.47 164.26 195.43 167.4M398.46 190.57C403.13 192.06 403.55 193.7 403.56 210.21C403.56 229.25 403.92 231.52 407.24 233.71C407.35 233.79 407.9 234.15 408.9 234.81C418.87 234.97 424.42 235.05 425.53 235.07C450.3 235.45 448.96 234.32 448.96 254.81C448.96 269.16 448.75 270.49 446.22 272.36C444.07 273.95 443.8 273.97 426.76 274.21C402.13 274.54 403.91 272.77 403.58 297.41C403.27 320.73 404.44 319.41 384.16 319.41C363.89 319.41 365.05 320.75 364.76 297C364.75 295.89 364.68 290.36 364.56 280.39C363.95 279.21 363.61 278.55 363.54 278.42C362.75 276.89 362.08 276.22 360.55 275.43C360.42 275.36 359.76 275.02 358.58 274.41C348.49 274.29 342.89 274.23 341.77 274.21C323.58 274 323.8 274.02 321.68 271.75C319.7 269.63 319.47 268.26 319.27 257.81C318.95 241.49 319.58 238.53 323.76 236.42C323.92 236.34 324.71 235.95 326.13 235.23C335.62 235.16 340.89 235.12 341.94 235.11C359.12 234.98 360.4 234.83 362.29 232.87C364.51 230.57 364.51 230.53 364.74 212.41C365.05 188.53 363.91 189.78 385.16 189.98C392.97 190.05 397.47 190.25 398.46 190.57M150.96 369.41C139.11 370.47 135.13 377.82 139.36 390.79C141.5 397.34 149.61 415.02 151.4 417.04C151.7 417.39 151.96 417.8 151.96 417.95C151.96 420.02 167 441.07 174.46 449.45C188.25 464.93 194.37 469.53 201.16 469.54C207.87 469.54 210.39 467.53 212.61 460.41C213.64 457.12 213.63 384.45 212.61 380.53C210.89 373.97 208.54 371.43 202.76 369.89C200.24 369.21 157.56 368.82 150.96 369.41M295.36 369.4C288.34 370.04 282.36 373.62 282.36 377.18C282.36 377.5 282.2 377.86 282 377.99C280.45 378.95 279.83 497.24 281.34 503.61C283.74 513.66 291.68 515.98 323.76 515.99C343.65 515.99 346.99 515.8 353.66 514.21C355.47 513.79 358.94 513.14 361.36 512.79C399.38 507.2 442.71 482.91 471.18 451.21C474.26 447.79 479.7 441.3 481.08 439.41C487.04 431.27 488.94 428.51 491.97 423.61C512.82 389.93 515.14 373.21 499.41 369.97C496.17 369.3 302.37 368.76 295.36 369.4" id="k3iFjNme4S"></path></defs><g><g><g><use xlink:href="#cTXUf9tFK" opacity="1" fill="#50ab16" fill-opacity="1"></use><g><use xlink:href="#cTXUf9tFK" opacity="1" fill-opacity="0" stroke="#000000" stroke-width="1" stroke-opacity="0"></use></g></g><g><use xlink:href="#d66YdHAHcr" opacity="1" fill="#000000" fill-opacity="0"></use><g><use xlink:href="#d66YdHAHcr" opacity="1" fill-opacity="0" stroke="#000000" stroke-width="1" stroke-opacity="0"></use></g></g><g><use xlink:href="#bIhKoqfHe" opacity="1" fill="#6ced2f" fill-opacity="1"></use><g><use xlink:href="#bIhKoqfHe" opacity="1" fill-opacity="0" stroke="#000000" stroke-width="1" stroke-opacity="0"></use></g></g><g><use xlink:href="#k3iFjNme4S" opacity="1" fill="#000000" fill-opacity="0"></use><g><use xlink:href="#k3iFjNme4S" opacity="1" fill-opacity="0" stroke="#000000" stroke-width="1" stroke-opacity="0"></use></g></g></g></g></svg>